{"asset":{"version":"2.0","generator":"THREE.GLTFExporter"},"scenes":[{"nodes":[0],"name":"AuxScene"}],"scene":0,"nodes":[{"mesh":0}],"bufferViews":[{"buffer":0,"byteOffset":0,"byteLength":116100,"target":34962,"byteStride":12},{"buffer":0,"byteOffset":116100,"byteLength":116100,"target":34962,"byteStride":12}],"buffers":[{"byteLength":232200,"uri":"data:application/octet-stream;base64,"}],"accessors":[{"bufferView":0,"componentType":5126,"count":9675,"max":[100.61190795898438,9.595970153808594,100.61190795898438],"min":[-100.68809509277344,0.7959750294685364,-100.68809509277344],"type":"VEC3"},{"bufferView":1,"componentType":5126,"count":9675,"max":[0.9488125443458557,1,0.9263267517089844],"min":[-0.9875484704971313,0.06412103027105331,-0.9914586544036865],"type":"VEC3"}],"materials":[{"pbrMetallicRoughness":{"baseColorFactor":[0.5019607843137255,0.5019607843137255,0.5019607843137255,1],"metallicFactor":0,"roughnessFactor":1}}],"meshes":[{"primitives":[{"mode":4,"attributes":{"POSITION":0,"NORMAL":1},"material":0}]}]}